<svg width="266" height="164" viewBox="0 0 266 164" fill="none" xmlns="http://www.w3.org/2000/svg">
<path d="M223.44 71.2375C225.144 67.3205 226.1 63.0375 226.1 58.5714C226.1 39.1696 208.228 23.4286 186.2 23.4286C178.012 23.4286 170.365 25.625 164.047 29.3589C152.534 11.7875 131.047 0 106.4 0C69.6588 0 39.9 26.2107 39.9 58.5714C39.9 59.5598 39.9416 60.5482 39.9831 61.5366C16.7081 68.7482 0 88.2964 0 111.286C0 140.388 26.8078 164 59.85 164H212.8C242.185 164 266 143.024 266 117.143C266 94.483 247.712 75.5571 223.44 71.2375Z" fill="#515151" fill-opacity="0.81"/>
</svg>
