<svg width="358" height="221" viewBox="0 0 358 221" fill="none" xmlns="http://www.w3.org/2000/svg">
<path d="M300.72 95.9969C303.013 90.7185 304.3 84.9469 304.3 78.9286C304.3 52.7835 280.247 31.5714 250.6 31.5714C239.58 31.5714 229.288 34.5312 220.785 39.5629C205.291 15.8844 176.371 0 143.2 0C93.7512 0 53.7 35.3205 53.7 78.9286C53.7 80.2605 53.7559 81.5924 53.8119 82.9243C22.4869 92.6424 0 118.985 0 149.964C0 189.182 36.0797 221 80.55 221H286.4C325.948 221 358 192.734 358 157.857C358 127.322 333.387 101.818 300.72 95.9969Z" fill="#515151" fill-opacity="0.81"/>
</svg>
