<svg width="311" height="192" viewBox="0 0 311 192" fill="none" xmlns="http://www.w3.org/2000/svg">
<path d="M261.24 83.4C263.232 78.8143 264.35 73.8 264.35 68.5714C264.35 45.8571 243.455 27.4286 217.7 27.4286C208.127 27.4286 199.186 30 191.8 34.3714C178.339 13.8 153.216 0 124.4 0C81.4431 0 46.65 30.6857 46.65 68.5714C46.65 69.7286 46.6986 70.8857 46.7472 72.0429C19.5347 80.4857 0 103.371 0 130.286C0 164.357 31.343 192 69.975 192H248.8C283.156 192 311 167.443 311 137.143C311 110.614 289.619 88.4571 261.24 83.4Z" fill="#515151" fill-opacity="0.81"/>
</svg>
