<svg width="12" height="20" viewBox="0 0 12 20" fill="none" xmlns="http://www.w3.org/2000/svg">
<path d="M5.804 0.16125C5.777 -0.05375 5.424 -0.05375 5.398 0.16125C4.515 7.26825 0 8.73325 0 13.6733C0 16.7262 2.564 19.2003 5.601 19.2003C8.637 19.2003 11.201 16.7253 11.201 13.6733C11.201 8.73325 6.687 7.26825 5.804 0.16125ZM4.951 8.01825C4.892 8.23725 4.828 8.46225 4.762 8.69625C4.361 10.1202 3.906 11.7353 3.906 13.6023C3.906 14.6143 3.308 14.9733 2.75 14.9733C2.59753 14.9726 2.44669 14.9419 2.30608 14.883C2.16547 14.824 2.03785 14.7379 1.93051 14.6297C1.82317 14.5214 1.7382 14.393 1.68046 14.2519C1.62272 14.1108 1.59334 13.9597 1.594 13.8073C1.594 11.6003 2.656 10.1582 3.594 8.88725C3.889 8.48925 4.166 8.11225 4.391 7.73725C4.494 7.56525 4.771 7.57325 4.897 7.74325C4.956 7.82325 4.976 7.92525 4.951 8.01825Z" fill="#75D6FF"/>
</svg>
