<svg width="53" height="43" viewBox="0 0 53 43" fill="none" xmlns="http://www.w3.org/2000/svg">
<path d="M43.0625 42.1179H34.3672C33.684 42.1179 33.125 41.5256 33.125 40.8017V36.4144C33.125 35.6905 33.684 35.0982 34.3672 35.0982H43.0625C44.8947 35.0982 46.375 33.5298 46.375 31.5884V10.5295C46.375 8.5881 44.8947 7.01965 43.0625 7.01965H34.3672C33.684 7.01965 33.125 6.42736 33.125 5.70346V1.31618C33.125 0.592283 33.684 0 34.3672 0H43.0625C48.5488 0 53 4.71633 53 10.5295V31.5884C53 37.4016 48.5488 42.1179 43.0625 42.1179ZM38.1973 20.0718L20.8066 1.64523C19.2539 0 16.5625 1.15166 16.5625 3.50982V14.0393H2.48438C1.10762 14.0393 0 15.2129 0 16.6717V27.2011C0 28.6599 1.10762 29.8335 2.48438 29.8335H16.5625V40.363C16.5625 42.7211 19.2539 43.8728 20.8066 42.2276L38.1973 23.801C39.16 22.77 39.16 21.1028 38.1973 20.0718Z" fill="url(#paint0_linear)"/>
<defs>
<linearGradient id="paint0_linear" x1="26.5" y1="0" x2="26.5" y2="43" gradientUnits="userSpaceOnUse">
<stop stop-color="#8DAFE2"/>
<stop offset="1" stop-color="#FF9696"/>
</linearGradient>
</defs>
</svg>
