<svg width="45" height="45" viewBox="0 0 45 45" fill="none" xmlns="http://www.w3.org/2000/svg">
<path d="M40.5 0H13.5C12.3065 0 11.1619 0.474106 10.318 1.31802C9.47411 2.16193 9 3.30653 9 4.5V31.5C9 32.6935 9.47411 33.8381 10.318 34.682C11.1619 35.5259 12.3065 36 13.5 36H40.5C41.6935 36 42.8381 35.5259 43.682 34.682C44.5259 33.8381 45 32.6935 45 31.5V4.5C45 3.30653 44.5259 2.16193 43.682 1.31802C42.8381 0.474106 41.6935 0 40.5 0ZM27 5.625C28.4918 5.625 29.9226 6.21763 30.9775 7.27252C32.0324 8.32742 32.625 9.75816 32.625 11.25C32.625 12.7418 32.0324 14.1726 30.9775 15.2275C29.9226 16.2824 28.4918 16.875 27 16.875C25.5082 16.875 24.0774 16.2824 23.0225 15.2275C21.9676 14.1726 21.375 12.7418 21.375 11.25C21.375 9.75816 21.9676 8.32742 23.0225 7.27252C24.0774 6.21763 25.5082 5.625 27 5.625V5.625ZM38.25 29.25H15.75V28.6875C15.75 24.5273 20.8215 20.25 27 20.25C33.1785 20.25 38.25 24.5273 38.25 28.6875V29.25Z" fill="url(#paint0_linear)"/>
<path d="M4.5 13.5H0V40.5C0 42.9818 2.01825 45 4.5 45H31.5V40.5H4.5V13.5Z" fill="url(#paint1_linear)"/>
<defs>
<linearGradient id="paint0_linear" x1="27" y1="0" x2="27" y2="36" gradientUnits="userSpaceOnUse">
<stop stop-color="#8DAFE2"/>
<stop offset="1" stop-color="#FF9696"/>
</linearGradient>
<linearGradient id="paint1_linear" x1="15.75" y1="13.5" x2="15.75" y2="45" gradientUnits="userSpaceOnUse">
<stop stop-color="#8DAFE2"/>
<stop offset="1" stop-color="#FF9696"/>
</linearGradient>
</defs>
</svg>
