<svg width="12" height="22" viewBox="0 0 12 22" fill="none" xmlns="http://www.w3.org/2000/svg">
<path d="M6.84468 6.7695C6.84468 6.5101 6.74163 6.26132 6.55821 6.07789C6.37478 5.89446 6.126 5.79141 5.86659 5.79141C5.60719 5.79141 5.35841 5.89446 5.17498 6.07789C4.99155 6.26132 4.8885 6.5101 4.8885 6.7695L4.89111 13.1532C4.32999 13.3802 3.86529 13.7952 3.57664 14.3273C3.28799 14.8593 3.19337 15.4752 3.30899 16.0693C3.42461 16.6634 3.74327 17.1989 4.21037 17.5838C4.67747 17.9688 5.26391 18.1793 5.8692 18.1793C6.47449 18.1793 7.06094 17.9688 7.52803 17.5838C7.99513 17.1989 8.31379 16.6634 8.42941 16.0693C8.54504 15.4752 8.45041 14.8593 8.16176 14.3273C7.87311 13.7952 7.40841 13.3802 6.84729 13.1532L6.84468 6.7695Z" fill="#DF2727"/>
<path d="M1.30478 4.48729V4.48469C1.32501 3.28835 1.81445 2.14785 2.66763 1.30897C3.52082 0.470092 4.66943 0 5.86594 0C7.06245 0 8.21106 0.470092 9.06424 1.30897C9.91743 2.14785 10.4069 3.28835 10.4271 4.48469V11.8764C11.1253 12.7376 11.5653 13.779 11.6961 14.88C11.8269 15.9809 11.6432 17.0964 11.1661 18.0972C10.6891 19.0981 9.93838 19.9433 9.00081 20.535C8.06325 21.1268 6.97724 21.4408 5.86855 21.4408C4.75986 21.4408 3.67384 21.1268 2.73628 20.535C1.79872 19.9433 1.04796 19.0981 0.570947 18.0972C0.0939362 17.0964 -0.0898109 15.9809 0.0409846 14.88C0.17178 13.779 0.611768 12.7376 1.30999 11.8764C1.30999 9.61118 1.29956 6.68604 1.29956 4.48729H1.30478ZM3.26096 4.48469C3.25444 7.19726 3.26617 9.91244 3.26617 12.6263L3.00535 12.908C2.48649 13.4657 2.14174 14.1628 2.01341 14.9137C1.88507 15.6646 1.97874 16.4366 2.28291 17.135C2.58708 17.8334 3.08852 18.4278 3.7257 18.8453C4.36288 19.2628 5.10808 19.4852 5.86985 19.4852C6.63162 19.4852 7.37682 19.2628 8.014 18.8453C8.65118 18.4278 9.15262 17.8334 9.45679 17.135C9.76096 16.4366 9.85463 15.6646 9.72629 14.9137C9.59796 14.1628 9.25321 13.4657 8.73435 12.908L8.47222 12.6263V4.48469C8.47222 3.79363 8.1977 3.13088 7.70905 2.64223C7.2204 2.15357 6.55765 1.87905 5.86659 1.87905C5.17553 1.87905 4.51278 2.15357 4.02413 2.64223C3.53548 3.13088 3.26096 3.79363 3.26096 4.48469Z" fill="white"/>
</svg>
